<svg xmlns="http://www.w3.org/2000/svg" xmlns:xlink="http://www.w3.org/1999/xlink" width="2000" zoomAndPan="magnify" viewBox="0 0 1500 1499.999933" height="2000" preserveAspectRatio="xMidYMid meet" version="1.0"><defs><clipPath id="0f448c04c2"><path d="M 305.9375 317.539062 L 601 317.539062 L 601 611 L 305.9375 611 Z M 305.9375 317.539062 " clip-rule="nonzero"/></clipPath><clipPath id="465d845cbf"><path d="M 895 317.539062 L 1191 317.539062 L 1191 611 L 895 611 Z M 895 317.539062 " clip-rule="nonzero"/></clipPath><clipPath id="0f73d64a1a"><path d="M 305.9375 887 L 601 887 L 601 1181 L 305.9375 1181 Z M 305.9375 887 " clip-rule="nonzero"/></clipPath></defs><g clip-path="url(#0f448c04c2)"><path fill="#a77df9" d="M 305.9375 317.539062 L 600.929688 317.539062 L 600.929688 610.035156 L 305.9375 610.035156 Z M 305.9375 317.539062 " fill-opacity="1" fill-rule="nonzero"/><path fill="#a77df9" d="M 305.9375 317.539062 L 600.929688 317.539062 L 600.929688 610.035156 L 305.9375 610.035156 Z M 305.9375 317.539062 " fill-opacity="1" fill-rule="nonzero"/></g><g clip-path="url(#465d845cbf)"><path fill="#a77df9" d="M 895.921875 317.539062 L 1190.921875 317.539062 L 1190.921875 610.035156 L 895.921875 610.035156 Z M 895.921875 317.539062 " fill-opacity="1" fill-rule="nonzero"/></g><g clip-path="url(#0f73d64a1a)"><path fill="#a77df9" d="M 305.9375 887.902344 L 600.929688 887.902344 L 600.929688 1180.398438 L 305.9375 1180.398438 Z M 305.9375 887.902344 " fill-opacity="1" fill-rule="nonzero"/></g><path fill="#a77df9" d="M 895.921875 887.902344 L 1190.921875 887.902344 L 1190.921875 1180.398438 L 895.921875 1180.398438 Z M 895.921875 887.902344 " fill-opacity="1" fill-rule="nonzero"/></svg>